<svg t="1672579843847" class="icon" viewBox="0 0 1024 1024" version="1.1" xmlns="http://www.w3.org/2000/svg" p-id="7174" width="20" height="20"><path d="M533.589333 154.581333l-43.648 75.605334c-124.16-37.504-235.264-19.2-273.536 47.146666-50.261333 87.04 33.706667 241.152 199.594667 336.938667s341.333333 91.392 391.594667 4.394667c38.314667-66.346667-1.408-171.690667-95.957334-260.48l43.648-75.605334c131.498667 115.584 190.421333 267.52 126.208 378.752-79.36 137.472-306.730667 143.146667-508.16 26.88C171.904 571.818667 63.146667 372.096 142.506667 234.666667c64.213333-111.232 225.28-136.192 391.082666-80.085334z m144.128-78.933333l73.898667 42.666667-213.333333 369.493333-73.898667-42.666667 213.333333-369.493333zM287.232 853.333333H725.333333v85.333334H214.058667a42.453333 42.453333 0 0 1-37.674667-21.333334 42.88 42.88 0 0 1 0-42.666666l96-166.272 73.898667 42.666666L287.232 853.333333z" p-id="7175" fill="#cdcdcd"></path></svg>