<svg t="1672583117429" class="icon" viewBox="0 0 1024 1024" version="1.1" xmlns="http://www.w3.org/2000/svg" p-id="33232" width="12" height="12"><path d="M739.2 284.8v655.2H84V284.8h655.2m0.8-75.2H83.2c-40.8 0-75.2 33.6-75.2 75.2v656.8c0 40.8 33.6 75.2 75.2 75.2h656.8c40.8 0 75.2-33.6 75.2-75.2V284c-0.8-41.6-33.6-74.4-75.2-74.4zM942.4 8H284c-40.8 0-73.6 33.6-74.4 73.6v76.8h75.2v-75.2h655.2v655.2h-75.2v75.2h76.8c40.8 0 73.6-33.6 74.4-74.4V81.6c0-40-33.6-73.6-73.6-73.6z" p-id="33233" fill="#ffffff"></path></svg>