<svg t="1672582864539" class="icon" viewBox="0 0 1024 1024" version="1.1" xmlns="http://www.w3.org/2000/svg" p-id="31410" width="20" height="20"><path d="M507.168 473.232L716.48 263.936a16 16 0 0 1 22.624 0l11.312 11.312a16 16 0 0 1 0 22.624L541.12 507.168 750.4 716.48a16 16 0 0 1 0 22.624l-11.312 11.312a16 16 0 0 1-22.624 0L507.168 541.12 297.872 750.4a16 16 0 0 1-22.624 0l-11.312-11.312a16 16 0 0 1 0-22.624l209.296-209.312-209.296-209.296a16 16 0 0 1 0-22.624l11.312-11.312a16 16 0 0 1 22.624 0l209.296 209.296z" fill="#ffffff" p-id="31411"></path></svg>