<svg xmlns="http://www.w3.org/2000/svg" xmlns:xlink="http://www.w3.org/1999/xlink" fill="none" version="1.1" width="80" height="80" viewBox="0 0 80 80"><defs><filter id="master_svg0_1_9" filterUnits="objectBoundingBox" color-interpolation-filters="sRGB" x="-2" y="0" width="29.263267517089844" height="31.230575561523438"><feFlood flood-opacity="0" result="BackgroundImageFix"/><feColorMatrix in="SourceAlpha" type="matrix" values="0 0 0 0 0 0 0 0 0 0 0 0 0 0 0 0 0 0 127 0"/><feOffset dy="4" dx="0"/><feGaussianBlur stdDeviation="0.5"/><feColorMatrix type="matrix" values="0 0 0 0 0 0 0 0 0 0 0 0 0 0 0 0 0 0 0.3019607961177826 0"/><feBlend mode="normal" in2="BackgroundImageFix" result="effect1_dropShadow"/><feBlend mode="normal" in="SourceGraphic" in2="effect1_dropShadow" result="shape"/></filter><filter id="master_svg1_1_674" filterUnits="objectBoundingBox" color-interpolation-filters="sRGB" x="-2" y="0" width="33.1116943359375" height="19.15401268005371"><feFlood flood-opacity="0" result="BackgroundImageFix"/><feColorMatrix in="SourceAlpha" type="matrix" values="0 0 0 0 0 0 0 0 0 0 0 0 0 0 0 0 0 0 127 0"/><feOffset dy="4" dx="0"/><feGaussianBlur stdDeviation="0.5"/><feColorMatrix type="matrix" values="0 0 0 0 0 0 0 0 0 0 0 0 0 0 0 0 0 0 0.3019607961177826 0"/><feBlend mode="normal" in2="BackgroundImageFix" result="effect1_dropShadow"/><feBlend mode="normal" in="SourceGraphic" in2="effect1_dropShadow" result="shape"/></filter></defs><g style="mix-blend-mode:passthrough"><g style="mix-blend-mode:passthrough"><ellipse cx="40" cy="40" rx="40" ry="40" fill="#525252" fill-opacity="1"/></g><g style="mix-blend-mode:passthrough"><ellipse cx="40" cy="40" rx="34.5" ry="34.5" fill-opacity="0" stroke-opacity="1" stroke="#E7E7E7" fill="none" stroke-width="1"/></g><g style="mix-blend-mode:passthrough"><ellipse cx="40" cy="40" rx="29.5" ry="29.5" fill-opacity="0" stroke-opacity="1" stroke="#E7E7E7" fill="none" stroke-width="1"/></g><g filter="url(#master_svg0_1_9)"><path d="M26.740159,36.30872C26.087659,36.09122,26.081409,35.73997,26.752659,35.516220000000004L50.6114,27.5637174C51.2727,27.343717,51.651399999999995,27.713717,51.4664,28.361217L44.6489,52.2187C44.4614,52.879999999999995,44.080200000000005,52.9025,43.800200000000004,52.275L39.3077,42.165L46.8077,32.16497L36.8077,39.665L26.740159,36.30872Z" fill="#F3F3F3" fill-opacity="1"/></g><g style="mix-blend-mode:passthrough" filter="url(#master_svg1_1_674)"><path d="M59.4165,51.89631Q52.8087,56.9793,40.6737,58.4961Q36.39191,59.0314,34.29805,57.7637Q32.48522,56.6661,32.54942,54.54736Q32.60119,52.83911,33.692009999999996,51.55858Q34.21226,50.94785,34.76335,50.786699999999996Q35.532939999999996,50.56166,36.01169,51.2Q36.68065,52.09194,36.4945,53.58166Q36.32505,54.93775,35.55801,56.081Q34.70009,57.359700000000004,33.52328,57.667699999999996Q32.12309,58.0341,30.784873,56.8784Q27.18911,53.77299,33.7057,44.708146L34.51766,45.291854Q28.53497,53.61402,31.43849,56.1216Q32.37869,56.9336,33.27009,56.7003Q34.080619999999996,56.4882,34.7276,55.5239Q35.36223,54.57795,35.50222,53.45767Q35.63828,52.36878,35.21169,51.8Q35.14863,51.71591,35.04402,51.7465Q34.77973,51.82379,34.45325,52.20705Q33.5901,53.22032,33.54896,54.57764Q33.50244,56.113,34.81596,56.9082Q36.61263,57.996,40.5497,57.5039Q52.414699999999996,56.0207,58.806799999999996,51.10369L59.4165,51.89631Z" fill="#E7E7E7" fill-opacity="1"/></g></g></svg>