<svg xmlns="http://www.w3.org/2000/svg" xmlns:xlink="http://www.w3.org/1999/xlink" fill="none" version="1.1" width="24" height="24" viewBox="0 0 226 444"><g style="mix-blend-mode:passthrough"><g style="mix-blend-mode:passthrough"><rect x="12.5" y="12.5" width="201" height="419" rx="0" fill-opacity="0" stroke-opacity="1" stroke="#2c2c2c" fill="none" stroke-width="25"/></g><g style="mix-blend-mode:passthrough" transform="matrix(0,0.9999035596847534,-0.9999035596847534,0,228.04450631645523,102.06668364118741)"><line x1="62.999908447265625" y1="156.06051635742188" x2="181.98554229736328" y2="156.06051635742188" fill-opacity="0" stroke-opacity="1" stroke="#2c2c2c" fill="none" stroke-width="18"/></g><g style="mix-blend-mode:passthrough" transform="matrix(0,0.9999035596847534,-0.9999035596847534,0,374.36841439505224,201.40464335091383)"><line x1="86.49993896484375" y1="283.896240234375" x2="205.4855728149414" y2="283.896240234375" fill-opacity="0" stroke-opacity="1" stroke="#2c2c2c" fill="none" stroke-width="8"/></g><g style="mix-blend-mode:passthrough" transform="matrix(0,0.9999035596847534,-0.9999035596847534,0,349.36841439505224,226.40223234303267)"><line x1="61.49993896484375" y1="283.896240234375" x2="180.4855728149414" y2="283.896240234375" fill-opacity="0" stroke-opacity="1" stroke="#2c2c2c" fill="none" stroke-width="8"/></g><g style="mix-blend-mode:passthrough" transform="matrix(0,0.9999035596847534,-0.9999035596847534,0,324.36841439505224,251.3998213351515)"><line x1="36.49993896484375" y1="283.896240234375" x2="155.4855728149414" y2="283.896240234375" fill-opacity="0" stroke-opacity="1" stroke="#2c2c2c" fill="none" stroke-width="8"/></g><g style="mix-blend-mode:passthrough" transform="matrix(0,0.9999035596847534,-0.9999035596847534,0,311.0444757988771,19.074718701987877)"><line x1="145.9998779296875" y1="156.06051635742188" x2="264.98551177978516" y2="156.06051635742188" fill-opacity="0" stroke-opacity="1" stroke="#2c2c2c" fill="none" stroke-width="18"/></g><g style="mix-blend-mode:passthrough" transform="matrix(0,0.9999035596847534,-0.9999035596847534,0,422.36841439505224,153.40927248604567)"><line x1="134.49993896484375" y1="283.896240234375" x2="253.4855728149414" y2="283.896240234375" fill-opacity="0" stroke-opacity="1" stroke="#2c2c2c" fill="none" stroke-width="8"/></g><g style="mix-blend-mode:passthrough" transform="matrix(0,0.9999035596847534,-0.9999035596847534,0,445.36841439505224,130.41149061329634)"><line x1="157.49993896484375" y1="283.896240234375" x2="276.4855728149414" y2="283.896240234375" fill-opacity="0" stroke-opacity="1" stroke="#2c2c2c" fill="none" stroke-width="8"/></g><g style="mix-blend-mode:passthrough" transform="matrix(0,0.9999035596847534,-0.9999035596847534,0,469.36841439505224,106.41380518086225)"><line x1="181.49993896484375" y1="283.896240234375" x2="300.4855728149414" y2="283.896240234375" fill-opacity="0" stroke-opacity="1" stroke="#2c2c2c" fill="none" stroke-width="8"/></g><g style="mix-blend-mode:passthrough" transform="matrix(-6.36789039276664e-8,1,-1,-6.032145449808013e-8,140.429461871829,-81.57066549162187)"><line x1="111.00006103515625" y1="25.929393768310547" x2="494.8616943359375" y2="25.929393768310547" fill-opacity="0" stroke-opacity="1" stroke="#2c2c2c" fill="none" stroke-width="7" stroke-dasharray="12"/></g></g></svg>