<svg xmlns="http://www.w3.org/2000/svg" xmlns:xlink="http://www.w3.org/1999/xlink" fill="none" version="1.1" width="24" height="24" viewBox="0 0 226 347"><g style="mix-blend-mode:passthrough"><g style="mix-blend-mode:passthrough"><rect x="12.5" y="12.5" width="201" height="322" rx="0" fill-opacity="0" stroke-opacity="1" stroke="#FFFFFF" fill="none" stroke-width="25"/></g><g style="mix-blend-mode:passthrough" transform="matrix(0,0.9999035596847534,-0.9999035596847534,0,191.98746764659882,66.00616728376554)"><line x1="62.999908447265625" y1="120" x2="155.99990844726562" y2="120" fill-opacity="0" stroke-opacity="1" stroke="#FFFFFF" fill="none" stroke-width="18"/></g><g style="mix-blend-mode:passthrough" transform="matrix(0,0.9999035596847534,-0.9999035596847534,0,311.47823989391327,138.50840311653883)"><line x1="86.49993896484375" y1="221" x2="179.49993896484375" y2="221" fill-opacity="0" stroke-opacity="1" stroke="#FFFFFF" fill="none" stroke-width="8"/></g><g style="mix-blend-mode:passthrough" transform="matrix(0,0.9999035596847534,-0.9999035596847534,0,286.47823989391327,163.50599210865767)"><line x1="61.49993896484375" y1="221" x2="154.49993896484375" y2="221" fill-opacity="0" stroke-opacity="1" stroke="#FFFFFF" fill="none" stroke-width="8"/></g><g style="mix-blend-mode:passthrough" transform="matrix(0,0.9999035596847534,-0.9999035596847534,0,261.47823989391327,188.5035811007765)"><line x1="36.49993896484375" y1="221" x2="129.49993896484375" y2="221" fill-opacity="0" stroke-opacity="1" stroke="#FFFFFF" fill="none" stroke-width="8"/></g><g style="mix-blend-mode:passthrough" transform="matrix(0,0.9999035596847534,-0.9999035596847534,0,274.9874371290207,-16.985797655434)"><line x1="145.9998779296875" y1="120" x2="238.9998779296875" y2="120" fill-opacity="0" stroke-opacity="1" stroke="#FFFFFF" fill="none" stroke-width="18"/></g><g style="mix-blend-mode:passthrough" transform="matrix(0,0.9999035596847534,-0.9999035596847534,0,359.47823989391327,90.51303225167067)"><line x1="134.49993896484375" y1="221" x2="227.49993896484375" y2="221" fill-opacity="0" stroke-opacity="1" stroke="#FFFFFF" fill="none" stroke-width="8"/></g><g style="mix-blend-mode:passthrough" transform="matrix(0,0.9999035596847534,-0.9999035596847534,0,382.47823989391327,67.51525037892134)"><line x1="157.49993896484375" y1="221" x2="250.49993896484375" y2="221" fill-opacity="0" stroke-opacity="1" stroke="#FFFFFF" fill="none" stroke-width="8"/></g><g style="mix-blend-mode:passthrough" transform="matrix(0,0.9999035596847534,-0.9999035596847534,0,406.47823989391327,43.517564946487255)"><line x1="181.49993896484375" y1="221" x2="274.49993896484375" y2="221" fill-opacity="0" stroke-opacity="1" stroke="#FFFFFF" fill="none" stroke-width="8"/></g><g style="mix-blend-mode:passthrough" transform="matrix(-6.36789039276664e-8,1,-1,-6.032145449808013e-8,134.00006810351846,-88.0000596477628)"><line x1="111.00006103515625" y1="19.5" x2="411.0000305175781" y2="19.5" fill-opacity="0" stroke-opacity="1" stroke="#2c2c2c" fill="none" stroke-width="7" stroke-dasharray="12"/></g></g></svg>